<svg width="505" height="762" viewBox="0 0 505 762" fill="none" xmlns="http://www.w3.org/2000/svg">
<g clip-path="url(#clip0_582_36432)">
<path d="M493.598 264.722C496.54 255.109 497.643 245.866 497.643 237.362C497.643 225.161 494.701 213.7 489.184 204.087C474.839 178.946 443.208 165.636 399.807 165.636L405.691 77.6418C405.691 76.1629 406.795 64.7015 401.646 51.0217C396.864 37.7117 385.094 19.5952 358.244 8.50352C307.119 -12.9404 275.12 13.6797 273.648 14.7888C273.281 15.1585 272.913 15.5283 272.545 16.2677L194.57 141.974C161.835 136.798 131.307 134.579 104.457 135.319C52.596 136.428 22.068 148.259 16.5509 169.703C11.0338 191.147 31.631 216.658 76.1357 243.278C88.2734 250.672 101.882 257.697 116.595 264.722H5.88446C4.04542 264.722 2.20638 265.831 1.10296 267.31C-0.000465184 269.159 -0.000465184 271.007 1.10296 272.856L49.2858 368.984C27.2173 407.065 22.8036 441.08 37.5159 466.591C51.8604 491.732 83.1241 505.042 126.525 505.042C169.927 505.042 141.238 505.042 148.962 503.933C202.662 498.757 265.189 476.943 324.774 442.189C380.681 409.653 428.128 369.723 459.391 328.684C466.012 327.205 472.265 325.356 477.414 323.508C492.126 317.592 501.321 309.458 503.896 298.736C506.471 288.384 503.16 276.923 493.598 264.722ZM382.152 283.947L439.53 320.18C432.174 320.92 424.082 321.659 415.622 321.659C396.496 322.029 375.531 320.92 353.095 318.332L368.175 288.014C370.75 282.838 377.37 280.99 382.152 283.947ZM454.61 315.744L374.06 265.092C374.06 265.092 373.692 265.092 373.324 264.722H372.589C372.589 264.722 372.221 264.722 371.853 264.722H166.984C179.858 255.848 193.466 246.975 207.443 238.841C248.27 215.179 290.568 197.432 329.923 187.45C350.888 194.474 370.75 202.239 388.772 210.373C388.772 210.373 389.508 210.373 389.876 210.742C407.898 218.876 424.082 227.01 438.794 235.883C457.552 246.975 471.897 258.067 481.092 268.419C476.311 282.838 467.851 297.997 456.449 314.265C456.081 315.004 455.345 315.744 454.978 316.483L454.61 315.744ZM400.174 177.097C419.668 177.097 436.22 180.055 449.828 185.601C463.069 191.147 473 199.281 479.253 210.003C486.241 222.573 488.08 237.732 484.402 254.739C474.471 245.127 461.23 235.144 444.311 225.161C430.335 216.658 414.519 208.524 397.6 200.76L399.071 177.097C399.439 177.097 399.807 177.097 400.174 177.097ZM82.0207 232.556C44.1365 209.633 23.5392 187.08 27.5851 171.921C31.631 156.763 60.32 147.15 104.457 146.041C107.032 146.041 109.606 146.041 112.181 146.041C137.192 146.041 165.513 148.629 195.673 153.435C195.673 153.435 196.041 153.435 196.409 153.435C221.788 157.502 248.638 163.418 275.855 170.442C287.257 173.4 298.292 176.728 308.958 180.055C273.648 190.777 236.5 207.045 200.455 227.749C181.329 238.841 162.938 251.042 146.387 263.613H144.18C120.64 253.63 99.3076 243.278 80.9172 232.556H82.0207ZM318.889 431.837C260.407 465.851 199.719 486.926 147.49 492.102C97.1008 496.908 61.4234 485.447 46.7111 460.306C33.8378 438.122 38.9871 407.065 60.32 371.572H140.134C142.341 371.572 144.18 370.463 145.284 368.244L179.49 299.476C183.168 292.451 193.099 292.451 196.777 299.476L230.983 368.244C232.086 370.093 233.925 371.572 236.132 371.572H322.567C324.774 371.572 326.613 370.463 327.716 368.244L347.578 328.684C368.911 331.272 389.14 332.751 407.898 332.751C426.656 332.751 413.048 332.751 415.622 332.751C425.185 332.751 434.013 332.012 442.104 330.902C411.944 367.505 368.543 402.629 318.521 431.837H318.889ZM492.862 295.409C491.023 302.803 482.931 309.089 470.058 313.525C478.15 301.324 484.402 289.493 489.184 278.032C492.862 284.317 494.333 290.233 492.862 295.409Z" fill="#000E1F"/>
<path d="M146.387 427.771C134.617 427.771 126.893 425.922 121.743 423.334C114.755 420.006 112.916 415.939 112.548 414.461C111.445 411.503 113.284 408.175 116.226 407.066C119.169 405.957 122.111 407.436 123.215 410.024C123.95 411.133 141.605 432.207 267.027 385.622C269.97 384.513 273.28 385.992 274.384 388.95C275.487 391.907 274.016 395.235 271.073 396.344C207.81 419.637 169.558 427.031 146.754 427.031L146.387 427.771Z" fill="#000E1F"/>
<path d="M181.328 761.131H154.11C150.432 761.131 148.226 760.391 147.122 758.913C146.019 757.434 145.651 755.585 145.651 752.997V709.37H47.8141V697.169H96.3647V669.809H35.3086V657.978H141.237C141.605 655.76 141.973 653.172 142.708 649.844C143.444 646.517 143.812 642.819 144.18 639.122C144.547 635.055 144.915 630.988 145.283 626.921C145.283 622.854 145.651 618.787 145.651 614.72V593.646H48.5497V581.445H170.294C172.501 581.445 174.34 581.445 175.811 582.554C177.282 583.294 178.386 584.033 179.121 585.143C179.857 586.252 180.593 587.361 180.593 588.84C180.593 590.319 180.96 591.798 180.96 592.907V596.604C180.96 601.41 180.593 606.587 179.489 612.132C178.754 617.308 177.282 622.854 175.443 628.03C173.604 633.207 171.397 638.383 168.823 643.559C166.248 648.735 163.673 653.172 160.363 657.239H194.569V669.07H132.778V696.429H180.96V760.391L181.328 761.131Z" fill="#000E1F"/>
<path d="M292.039 645.407V663.893H212.225V645.407H292.039Z" fill="#000E1F"/>
<path d="M456.08 689.035V730.074H364.128V748.191H458.287V761.131H337.278C333.968 761.131 331.761 760.392 330.658 758.543C329.554 756.694 328.819 754.476 328.819 751.888V734.141C328.819 730.814 328.083 728.595 326.98 727.116C325.876 725.638 324.037 725.268 321.463 725.268H316.681V718.243H420.771V701.236H325.508V689.035H371.117V673.507H310.061V661.306H469.689V673.507H407.897V689.035H456.08ZM457.551 646.517H336.175C332.497 646.517 330.29 645.408 328.451 643.189C326.612 640.971 326.244 638.383 326.244 635.795V622.115C326.244 618.788 325.876 616.569 324.773 615.46C324.037 614.351 322.198 613.611 319.256 613.611H315.21V605.847H420.035V588.84H323.669V577.009H448.724C453.138 577.009 455.345 579.597 455.345 585.143V617.678H361.186V634.686H457.551V646.517Z" fill="#000E1F"/>
</g>
<defs>
<clipPath id="clip0_582_36432">
<rect width="505" height="762" fill="white"/>
</clipPath>
</defs>
</svg>
